<?xml version="1.0" encoding="UTF-8"?>
<svg xmlns="http://www.w3.org/2000/svg" xmlns:xlink="http://www.w3.org/1999/xlink" width="16px" height="16px" viewBox="0 0 16 16" version="1.1">
<g id="surface1">
<path style=" stroke:none;fill-rule:evenodd;fill:rgb(26.666667%,26.666667%,73.333333%);fill-opacity:1;" d="M 1.265625 -0.015625 C 5.746094 -0.015625 10.222656 -0.015625 14.703125 -0.015625 C 15.371094 0.171875 15.796875 0.597656 15.984375 1.265625 C 15.984375 5.746094 15.984375 10.222656 15.984375 14.703125 C 15.796875 15.371094 15.371094 15.796875 14.703125 15.984375 C 10.222656 15.984375 5.746094 15.984375 1.265625 15.984375 C 0.597656 15.796875 0.171875 15.371094 -0.015625 14.703125 C -0.015625 10.222656 -0.015625 5.746094 -0.015625 1.265625 C 0.171875 0.597656 0.597656 0.171875 1.265625 -0.015625 Z M 1.265625 -0.015625 "/>
<path style=" stroke:none;fill-rule:evenodd;fill:rgb(99.215686%,99.215686%,99.607843%);fill-opacity:1;" d="M 9.296875 2.765625 C 9.359375 2.808594 9.433594 2.832031 9.515625 2.828125 C 9.976562 2.992188 10.386719 3.242188 10.75 3.578125 C 10.90625 3.765625 11.054688 3.964844 11.1875 4.171875 C 11.300781 4.390625 11.378906 4.617188 11.421875 4.859375 C 11.417969 4.941406 11.441406 5.015625 11.484375 5.078125 C 11.484375 5.089844 11.484375 5.097656 11.484375 5.109375 C 11.527344 5.484375 11.527344 5.859375 11.484375 6.234375 C 11.257812 7.605469 10.488281 8.515625 9.171875 8.96875 C 8.882812 9.042969 8.589844 9.101562 8.296875 9.140625 C 7.847656 9.183594 7.402344 9.183594 6.953125 9.140625 C 6.910156 9.140625 6.871094 9.140625 6.828125 9.140625 C 6.816406 10.234375 6.839844 11.328125 6.90625 12.421875 C 6.933594 12.644531 6.96875 12.863281 7.015625 13.078125 C 7.015625 13.109375 7.015625 13.140625 7.015625 13.171875 C 6.441406 13.171875 5.871094 13.171875 5.296875 13.171875 C 5.28125 13.171875 5.269531 13.160156 5.265625 13.140625 C 5.339844 12.917969 5.394531 12.6875 5.421875 12.453125 C 5.46875 12.210938 5.496094 11.960938 5.5 11.703125 C 5.527344 9.300781 5.519531 6.90625 5.484375 4.515625 C 5.488281 4.242188 5.480469 3.972656 5.453125 3.703125 C 5.453125 3.539062 5.433594 3.382812 5.390625 3.234375 C 5.394531 3.132812 5.371094 3.039062 5.328125 2.953125 C 5.324219 2.898438 5.3125 2.847656 5.296875 2.796875 C 5.382812 2.765625 5.476562 2.757812 5.578125 2.765625 C 6.027344 2.808594 6.472656 2.800781 6.921875 2.734375 C 7.074219 2.738281 7.222656 2.71875 7.359375 2.671875 C 8.007812 2.609375 8.652344 2.640625 9.296875 2.765625 Z M 9.296875 2.765625 "/>
<path style=" stroke:none;fill-rule:evenodd;fill:rgb(62.745098%,62.352941%,86.27451%);fill-opacity:1;" d="M 7.359375 2.671875 C 7.222656 2.71875 7.074219 2.738281 6.921875 2.734375 C 7.058594 2.6875 7.207031 2.667969 7.359375 2.671875 Z M 7.359375 2.671875 "/>
<path style=" stroke:none;fill-rule:evenodd;fill:rgb(50.196078%,49.019608%,81.568627%);fill-opacity:1;" d="M 5.578125 2.765625 C 5.476562 2.757812 5.382812 2.765625 5.296875 2.796875 C 5.28125 2.796875 5.269531 2.785156 5.265625 2.765625 C 5.375 2.726562 5.480469 2.726562 5.578125 2.765625 Z M 5.578125 2.765625 "/>
<path style=" stroke:none;fill-rule:evenodd;fill:rgb(47.45098%,45.882353%,80.392157%);fill-opacity:1;" d="M 9.296875 2.765625 C 9.378906 2.761719 9.453125 2.785156 9.515625 2.828125 C 9.433594 2.832031 9.359375 2.808594 9.296875 2.765625 Z M 9.296875 2.765625 "/>
<path style=" stroke:none;fill-rule:evenodd;fill:rgb(41.568627%,40.392157%,78.431373%);fill-opacity:1;" d="M 5.328125 2.953125 C 5.371094 3.039062 5.394531 3.132812 5.390625 3.234375 C 5.390625 3.265625 5.390625 3.296875 5.390625 3.328125 C 5.339844 3.210938 5.320312 3.085938 5.328125 2.953125 Z M 5.328125 2.953125 "/>
<path style=" stroke:none;fill-rule:evenodd;fill:rgb(26.666667%,26.666667%,73.333333%);fill-opacity:1;" d="M 9.984375 4.890625 C 9.984375 5.0625 10.007812 5.230469 10.046875 5.390625 C 10.046875 5.421875 10.046875 5.453125 10.046875 5.484375 C 10.050781 5.785156 10.039062 6.089844 10.015625 6.390625 C 9.984375 6.65625 9.925781 6.914062 9.84375 7.171875 C 9.484375 8.023438 8.84375 8.503906 7.921875 8.609375 C 7.566406 8.621094 7.210938 8.597656 6.859375 8.546875 C 6.859375 6.796875 6.859375 5.046875 6.859375 3.296875 C 6.941406 3.300781 7.015625 3.277344 7.078125 3.234375 C 7.210938 3.242188 7.335938 3.222656 7.453125 3.171875 C 7.929688 3.105469 8.398438 3.140625 8.859375 3.28125 C 9.515625 3.617188 9.890625 4.15625 9.984375 4.890625 Z M 9.984375 4.890625 "/>
<path style=" stroke:none;fill-rule:evenodd;fill:rgb(51.372549%,49.803922%,81.960784%);fill-opacity:1;" d="M 7.453125 3.171875 C 7.335938 3.222656 7.210938 3.242188 7.078125 3.234375 C 7.195312 3.199219 7.320312 3.179688 7.453125 3.171875 Z M 7.453125 3.171875 "/>
<path style=" stroke:none;fill-rule:evenodd;fill:rgb(48.235294%,47.45098%,80.784314%);fill-opacity:1;" d="M 7.078125 3.234375 C 7.015625 3.277344 6.941406 3.300781 6.859375 3.296875 C 6.921875 3.253906 6.996094 3.230469 7.078125 3.234375 Z M 7.078125 3.234375 "/>
<path style=" stroke:none;fill-rule:evenodd;fill:rgb(41.568627%,41.176471%,78.431373%);fill-opacity:1;" d="M 6.859375 3.296875 C 6.859375 5.046875 6.859375 6.796875 6.859375 8.546875 C 7.210938 8.597656 7.566406 8.621094 7.921875 8.609375 C 7.558594 8.652344 7.195312 8.640625 6.828125 8.578125 C 6.816406 6.8125 6.828125 5.050781 6.859375 3.296875 Z M 6.859375 3.296875 "/>
<path style=" stroke:none;fill-rule:evenodd;fill:rgb(58.823529%,58.431373%,85.098039%);fill-opacity:1;" d="M 5.390625 3.234375 C 5.433594 3.382812 5.453125 3.539062 5.453125 3.703125 C 5.417969 3.585938 5.398438 3.460938 5.390625 3.328125 C 5.390625 3.296875 5.390625 3.265625 5.390625 3.234375 Z M 5.390625 3.234375 "/>
<path style=" stroke:none;fill-rule:evenodd;fill:rgb(65.882353%,65.490196%,87.45098%);fill-opacity:1;" d="M 11.421875 4.859375 C 11.464844 4.921875 11.488281 4.996094 11.484375 5.078125 C 11.441406 5.015625 11.417969 4.941406 11.421875 4.859375 Z M 11.421875 4.859375 "/>
<path style=" stroke:none;fill-rule:evenodd;fill:rgb(47.843137%,46.666667%,80.784314%);fill-opacity:1;" d="M 9.984375 4.890625 C 10.03125 5.050781 10.050781 5.214844 10.046875 5.390625 C 10.007812 5.230469 9.984375 5.0625 9.984375 4.890625 Z M 9.984375 4.890625 "/>
<path style=" stroke:none;fill-rule:evenodd;fill:rgb(60%,59.607843%,85.098039%);fill-opacity:1;" d="M 11.484375 5.109375 C 11.53125 5.300781 11.550781 5.496094 11.546875 5.703125 C 11.554688 5.886719 11.53125 6.066406 11.484375 6.234375 C 11.527344 5.859375 11.527344 5.484375 11.484375 5.109375 Z M 11.484375 5.109375 "/>
<path style=" stroke:none;fill-rule:evenodd;fill:rgb(78.039216%,78.039216%,92.156863%);fill-opacity:1;" d="M 10.046875 5.484375 C 10.066406 5.605469 10.078125 5.730469 10.078125 5.859375 C 10.085938 6.042969 10.0625 6.222656 10.015625 6.390625 C 10.039062 6.089844 10.050781 5.785156 10.046875 5.484375 Z M 10.046875 5.484375 "/>
<path style=" stroke:none;fill-rule:evenodd;fill:rgb(57.647059%,57.254902%,84.313725%);fill-opacity:1;" d="M 6.953125 9.140625 C 7.402344 9.183594 7.847656 9.183594 8.296875 9.140625 C 8.25 9.164062 8.199219 9.179688 8.140625 9.1875 C 7.972656 9.191406 7.808594 9.199219 7.640625 9.203125 C 7.402344 9.210938 7.175781 9.1875 6.953125 9.140625 Z M 6.953125 9.140625 "/>
<path style=" stroke:none;fill-rule:evenodd;fill:rgb(74.901961%,74.509804%,90.588235%);fill-opacity:1;" d="M 5.484375 4.515625 C 5.519531 6.90625 5.527344 9.300781 5.5 11.703125 C 5.496094 11.960938 5.46875 12.210938 5.421875 12.453125 C 5.433594 12.191406 5.449219 11.933594 5.46875 11.671875 C 5.484375 9.285156 5.488281 6.902344 5.484375 4.515625 Z M 5.484375 4.515625 "/>
<path style=" stroke:none;fill-rule:evenodd;fill:rgb(43.921569%,43.921569%,79.607843%);fill-opacity:1;" d="M 7.015625 13.078125 C 7.042969 13.113281 7.054688 13.152344 7.046875 13.203125 C 6.457031 13.214844 5.875 13.203125 5.296875 13.171875 C 5.871094 13.171875 6.441406 13.171875 7.015625 13.171875 C 7.015625 13.140625 7.015625 13.109375 7.015625 13.078125 Z M 7.015625 13.078125 "/>
</g>
</svg>
